<?xml version="1.0" encoding="UTF-8" standalone="no"?>
<svg width="512px" height="512px" viewBox="0 0 512 512" version="1.1" xmlns="http://www.w3.org/2000/svg" xmlns:xlink="http://www.w3.org/1999/xlink" xmlns:sketch="http://www.bohemiancoding.com/sketch/ns">
    <!-- Generator: Sketch 3.0.1 (7597) - http://www.bohemiancoding.com/sketch -->
    <title>Shape</title>
    <description>Created with Sketch.</description>
    <defs></defs>
    <g id="Page-1" stroke="none" stroke-width="1" fill="none" fill-rule="evenodd" sketch:type="MSPage">
        <g id="cancel-circle" sketch:type="MSLayerGroup" fill="#000000">
            <path d="M256,0 C114.615,0 0,114.615 0,256 C0,397.385 114.615,512 256,512 C397.385,512 512,397.385 512,256 C512,114.615 397.385,0 256,0 L256,0 Z M384,173.255 L301.256,256 L384,338.744 L384,384 L338.744,384 L256,301.256 L173.255,384 L128,384 L128,338.744 L210.745,256 L128,173.255 L128,128 L173.255,128 L256,210.745 L338.744,128 L384,128 L384,173.255 L384,173.255 Z" id="Shape" sketch:type="MSShapeGroup"></path>
        </g>
    </g>
</svg>